<?xml version="1.0" encoding="utf-8"?>
<!-- Generator: Adobe Illustrator 24.2.1, SVG Export Plug-In . SVG Version: 6.00 Build 0)  -->
<svg version="1.1" id="Layer_1" xmlns="http://www.w3.org/2000/svg" xmlns:xlink="http://www.w3.org/1999/xlink" x="0px" y="0px"
	 viewBox="0 0 30 30" style="enable-background:new 0 0 30 30;" xml:space="preserve">
<path d="M30,27.4l-6-6c1.7-2.2,2.7-5,2.7-8C26.7,6,20.7,0,13.4,0C6,0,0,6,0,13.4s6,13.4,13.4,13.4c3,0,5.8-1,8-2.7l6,6L30,27.4z
	 M3.7,13.4C3.7,8,8,3.7,13.4,3.7S23,8,23,13.4c0,5.3-4.3,9.7-9.7,9.7S3.7,18.7,3.7,13.4z"/>
</svg>
