<svg xmlns="http://www.w3.org/2000/svg" width="31" height="31" viewBox="0 0 31 31">
  <g id="그룹_11538" data-name="그룹 11538" transform="translate(-1014.543 -916.657)">
    <path id="패스_16802" data-name="패스 16802" d="M1030.045,919.465c4.131,0,4.618.026,6.264.081a8.959,8.959,0,0,1,2.889.541,5.144,5.144,0,0,1,2.943,2.946,8.8,8.8,0,0,1,.54,2.889c.082,1.647.082,2.134.082,6.265s-.028,4.617-.082,6.264a8.975,8.975,0,0,1-.54,2.891,5.148,5.148,0,0,1-2.947,2.946,8.765,8.765,0,0,1-2.889.541c-1.621.082-2.133.082-6.264.082s-4.618-.028-6.264-.082a8.937,8.937,0,0,1-2.89-.541,5.148,5.148,0,0,1-2.947-2.946,8.8,8.8,0,0,1-.54-2.89c-.054-1.674-.054-2.159-.054-6.29s.025-4.618.08-6.264a8.917,8.917,0,0,1,.542-2.891,5.154,5.154,0,0,1,2.946-2.947,8.853,8.853,0,0,1,2.889-.541c1.621-.054,2.108-.054,6.24-.054m0-2.807c-4.212,0-4.725.026-6.4.08a10.87,10.87,0,0,0-3.754.729,7.664,7.664,0,0,0-2.755,1.782,7.317,7.317,0,0,0-1.782,2.755,11.467,11.467,0,0,0-.729,3.754c-.08,1.646-.08,2.187-.08,6.4s.026,4.725.08,6.4a10.847,10.847,0,0,0,.729,3.755,7.67,7.67,0,0,0,1.782,2.753,7.323,7.323,0,0,0,2.755,1.784,11.585,11.585,0,0,0,3.754.728c1.647.081,2.188.081,6.4.081s4.726-.028,6.4-.081a10.9,10.9,0,0,0,3.753-.728,7.675,7.675,0,0,0,2.755-1.784,7.333,7.333,0,0,0,1.783-2.753,11.594,11.594,0,0,0,.728-3.755c.081-1.645.081-2.187.081-6.4s-.027-4.725-.081-6.4a10.881,10.881,0,0,0-.728-3.754,7.679,7.679,0,0,0-1.783-2.755,7.35,7.35,0,0,0-2.755-1.782,11.552,11.552,0,0,0-3.753-.729c-1.672-.055-2.185-.081-6.4-.081Z"/>
    <path id="패스_16803" data-name="패스 16803" d="M1030.045,924.192a7.965,7.965,0,1,0,7.966,7.966h0a7.964,7.964,0,0,0-7.96-7.965Zm0,13.123a5.158,5.158,0,1,1,5.158-5.158h0a5.157,5.157,0,0,1-5.157,5.157h0Z"/>
    <circle id="타원_8702" data-name="타원 8702" cx="1.863" cy="1.863" r="1.863" transform="translate(1036.444 922.031)"/>
  </g>
</svg>
