<svg xmlns="http://www.w3.org/2000/svg" width="32" height="32" viewBox="0 0 32 32">
  <g id="그룹_12632" data-name="그룹 12632" transform="translate(-960.043 -916.157)">
    <path id="패스_18642" data-name="패스 18642" d="M960.043,919.736v24.842a3.579,3.579,0,0,0,3.58,3.579H977.09V935.8h-4.168V930.75h4.168v-4.238a5.581,5.581,0,0,1,5.581-5.581h4.356v4.537h-3.116a1.774,1.774,0,0,0-1.774,1.774v3.507h4.813l-.669,5.046h-4.153v12.361h6.335a3.579,3.579,0,0,0,3.58-3.579h0V919.735a3.579,3.579,0,0,0-3.58-3.578H963.619A3.579,3.579,0,0,0,960.043,919.736Z"/>
  </g>
</svg>
