<svg xmlns="http://www.w3.org/2000/svg" width="32" height="31.944" viewBox="0 0 32 31.944">
  <g id="그룹_12631" data-name="그룹 12631" transform="translate(-906.043 -916.185)">
    <path id="패스_18629" data-name="패스 18629" d="M909.887,916.185a3.845,3.845,0,1,1-3.844,3.847h0a3.846,3.846,0,0,1,3.844-3.846m-3.321,10.606H913.2v21.338h-6.633V926.791Z"/>
    <path id="패스_18630" data-name="패스 18630" d="M917.362,926.791h6.361v2.918h.09a6.971,6.971,0,0,1,6.275-3.446c6.716,0,7.955,4.418,7.955,10.159v11.7h-6.629V937.752c0-2.474-.043-5.657-3.446-5.657-3.451,0-3.978,2.7-3.978,5.48v10.55h-6.629V926.791Z"/>
  </g>
</svg>
