<svg xmlns="http://www.w3.org/2000/svg" width="32" height="22.536" viewBox="0 0 32 22.536">
  <path id="패스_18644" data-name="패스 18644" d="M1153.375,924.432a4.024,4.024,0,0,0-2.831-2.848c-2.494-.669-12.5-.669-12.5-.669s-10.007,0-12.5.669a4.021,4.021,0,0,0-2.829,2.848,45.237,45.237,0,0,0,0,15.5,4.02,4.02,0,0,0,2.829,2.847c2.495.669,12.5.669,12.5.669s10.007,0,12.5-.669a4.023,4.023,0,0,0,2.831-2.847A45.292,45.292,0,0,0,1153.375,924.432Zm-18.6,12.51v-9.517l8.364,4.759Z" transform="translate(-1122.043 -920.915)"/>
</svg>
