<?xml version="1.0" encoding="utf-8"?>
<!-- Generator: Adobe Illustrator 24.2.1, SVG Export Plug-In . SVG Version: 6.00 Build 0)  -->
<svg version="1.1" id="Layer_1" xmlns="http://www.w3.org/2000/svg" xmlns:xlink="http://www.w3.org/1999/xlink" x="0px" y="0px"
	 viewBox="0 0 18 18" style="enable-background:new 0 0 18 18;" xml:space="preserve">
<path d="M18,16.1l-3.3-3.3c0.9-1.3,1.5-2.9,1.5-4.7c0-4.5-3.6-8.1-8.1-8.1C3.6,0,0,3.6,0,8.1s3.6,8.1,8.1,8.1c1.7,0,3.3-0.6,4.7-1.5
	l3.3,3.3L18,16.1z M2.7,8.1c0-3,2.4-5.4,5.4-5.4c3,0,5.4,2.4,5.4,5.4s-2.4,5.4-5.4,5.4C5.1,13.4,2.7,11,2.7,8.1z"/>
</svg>
