<svg xmlns="http://www.w3.org/2000/svg" width="134.707" height="37" viewBox="0 0 134.707 37">
  <g id="그룹_12559" data-name="그룹 12559" transform="translate(-24.196 -10.627)">
    <g id="그룹_9354" data-name="그룹 9354" transform="translate(61.635 11.097)">
      <path id="패스_1435" data-name="패스 1435" d="M97.226,34.235l-.692,2.277H95.02L97.6,28.474h1.872l2.612,8.038h-1.575l-.727-2.277Zm2.3-1.109-.633-1.98c-.155-.489-.287-1.038-.406-1.5h-.024c-.119.465-.238,1.025-.382,1.5l-.62,1.98Z" transform="translate(-95.02 -28.032)"/>
      <path id="패스_1436" data-name="패스 1436" d="M106.641,31.393l.941,2.946c.167.513.286.978.394,1.455h.036c.107-.477.238-.93.393-1.455l.93-2.946h1.539L108.656,37.2h-1.442l-2.159-5.808Z" transform="translate(-97.388 -28.721)"/>
      <path id="패스_1437" data-name="패스 1437" d="M118.816,35.766a7.808,7.808,0,0,0,.1,1.4h-1.324l-.107-.644h-.036a2.123,2.123,0,0,1-1.717.775,1.724,1.724,0,0,1-1.824-1.73c0-1.455,1.3-2.206,3.446-2.194v-.1c0-.381-.155-1.013-1.18-1.013a3.068,3.068,0,0,0-1.562.429l-.286-.954a4.179,4.179,0,0,1,2.1-.513,2.175,2.175,0,0,1,2.4,2.456Zm-1.431-1.443c-1.038-.012-2.028.2-2.028,1.086a.77.77,0,0,0,.835.834,1.2,1.2,0,0,0,1.157-.8.985.985,0,0,0,.036-.322Z" transform="translate(-99.476 -28.681)"/>
      <path id="패스_1438" data-name="패스 1438" d="M123.75,29.81a.83.83,0,1,1,.012,0Zm-.727,6.643V30.645h1.467v5.808Z" transform="translate(-101.609 -27.974)"/>
      <path id="패스_1439" data-name="패스 1439" d="M127.73,27.9H129.2v8.48H127.73Z" transform="translate(-102.739 -27.896)"/>
      <path id="패스_1440" data-name="패스 1440" d="M136.81,35.766a7.887,7.887,0,0,0,.095,1.4h-1.324l-.107-.644h-.036a2.121,2.121,0,0,1-1.717.775,1.724,1.724,0,0,1-1.824-1.73c0-1.455,1.3-2.206,3.446-2.194v-.1c0-.381-.154-1.013-1.18-1.013a3.068,3.068,0,0,0-1.562.429l-.286-.954a4.176,4.176,0,0,1,2.1-.513,2.176,2.176,0,0,1,2.4,2.456Zm-1.432-1.443c-1.038-.012-2.027.2-2.027,1.086a.769.769,0,0,0,.834.834,1.2,1.2,0,0,0,1.157-.8.986.986,0,0,0,.036-.322Z" transform="translate(-103.723 -28.681)"/>
      <path id="패스_1441" data-name="패스 1441" d="M141.027,27.9h1.467v3.471h.024a2.1,2.1,0,0,1,1.86-.93c1.42,0,2.433,1.18,2.42,2.945,0,2.087-1.323,3.125-2.635,3.125a2,2,0,0,1-1.837-1H142.3l-.072.871h-1.252c.024-.393.048-1.038.048-1.622Zm1.467,6.082a1.626,1.626,0,0,0,.035.346,1.341,1.341,0,0,0,1.3,1.026c.918,0,1.478-.727,1.478-1.908,0-1.025-.489-1.86-1.467-1.86a1.363,1.363,0,0,0-1.3,1.073,1.761,1.761,0,0,0-.047.382Z" transform="translate(-105.866 -27.896)"/>
      <path id="패스_1442" data-name="패스 1442" d="M150.857,27.9h1.467v8.48h-1.467Z" transform="translate(-108.197 -27.896)"/>
      <path id="패스_1443" data-name="패스 1443" d="M156.478,34.668a1.578,1.578,0,0,0,1.789,1.5,4.677,4.677,0,0,0,1.61-.263l.215,1a5.213,5.213,0,0,1-2.027.37,2.748,2.748,0,0,1-2.994-2.934,2.876,2.876,0,0,1,2.839-3.124c1.884,0,2.5,1.55,2.5,2.826a3.742,3.742,0,0,1-.047.62Zm2.552-1.026a1.249,1.249,0,0,0-1.2-1.419,1.435,1.435,0,0,0-1.347,1.419Z" transform="translate(-109.192 -28.681)"/>
      <path id="패스_1444" data-name="패스 1444" d="M170.637,37.292a2.808,2.808,0,0,1-2.911-2.993,2.868,2.868,0,0,1,3.006-3.077,2.786,2.786,0,0,1,2.886,2.981,2.875,2.875,0,0,1-2.97,3.089Zm.047-1.062c.834,0,1.419-.811,1.419-1.991,0-.907-.406-1.956-1.407-1.956-1.038,0-1.455,1.014-1.455,1.98,0,1.121.561,1.967,1.432,1.967Z" transform="translate(-112.178 -28.681)"/>
      <path id="패스_1445" data-name="패스 1445" d="M177.684,33.082c0-.668-.024-1.229-.048-1.73h1.276l.072.871h.036a2.132,2.132,0,0,1,1.86-1c1.014,0,2.064.656,2.064,2.492v3.446h-1.467V33.881c0-.835-.311-1.468-1.109-1.468a1.231,1.231,0,0,0-1.144.859,1.353,1.353,0,0,0-.072.465v3.423h-1.467Z" transform="translate(-114.517 -28.681)"/>
      <path id="패스_1446" data-name="패스 1446" d="M192.729,29.442v1.491h1.4v1.1h-1.4v2.553c0,.715.191,1.073.752,1.073a1.926,1.926,0,0,0,.572-.06l.024,1.109a3.2,3.2,0,0,1-1.062.155,1.68,1.68,0,0,1-1.264-.477,2.288,2.288,0,0,1-.465-1.634V32.03h-.824v-1.1h.824V29.848Z" transform="translate(-117.544 -28.261)"/>
      <path id="패스_1447" data-name="패스 1447" d="M197.393,27.9h1.467v3.459h.024a1.936,1.936,0,0,1,.727-.656,2.067,2.067,0,0,1,1.015-.262c.989,0,2.027.656,2.027,2.516v3.423h-1.467V33.108c0-.835-.31-1.479-1.122-1.479a1.225,1.225,0,0,0-1.144.823,1.329,1.329,0,0,0-.06.442v3.482h-1.467Z" transform="translate(-119.18 -27.896)"/>
      <path id="패스_1448" data-name="패스 1448" d="M207.929,34.668a1.578,1.578,0,0,0,1.789,1.5,4.677,4.677,0,0,0,1.61-.263l.215,1a5.213,5.213,0,0,1-2.027.37,2.748,2.748,0,0,1-2.994-2.934,2.876,2.876,0,0,1,2.839-3.124c1.884,0,2.5,1.55,2.5,2.826a3.741,3.741,0,0,1-.047.62Zm2.552-1.026a1.248,1.248,0,0,0-1.2-1.419,1.435,1.435,0,0,0-1.348,1.419Z" transform="translate(-121.334 -28.681)"/>
    </g>
    <g id="그룹_9357" data-name="그룹 9357" transform="translate(24.196 10.627)">
      <g id="그룹_9355" data-name="그룹 9355">
        <path id="패스_1449" data-name="패스 1449" d="M67.415,46.763A7.486,7.486,0,0,1,70.822,40.5a7.228,7.228,0,0,0-5.772-3.255c-2.428-.265-4.783,1.517-6.018,1.517-1.261,0-3.17-1.49-5.22-1.447a7.653,7.653,0,0,0-6.468,4.114c-2.8,5.048-.711,12.467,1.968,16.55,1.341,2,2.908,4.23,4.958,4.15,2.006-.087,2.753-1.332,5.175-1.332,2.4,0,3.1,1.332,5.194,1.282,2.152-.037,3.507-2.008,4.8-4.025a16.747,16.747,0,0,0,2.2-4.663,7.167,7.167,0,0,1-4.221-6.633" transform="translate(-46.016 -29.626)"/>
        <path id="패스_1450" data-name="패스 1450" d="M67.4,32.328a7.032,7.032,0,0,0,1.611-5.048,7.16,7.16,0,0,0-4.636,2.4,6.7,6.7,0,0,0-1.656,4.861,5.929,5.929,0,0,0,4.68-2.213" transform="translate(-49.948 -27.28)"/>
      </g>
      <g id="그룹_9356" data-name="그룹 9356" transform="translate(36.563 15.567)">
        <path id="패스_1451" data-name="패스 1451" d="M107.7,63.024h-2.793l-1.532-4.812h-5.32l-1.459,4.812H93.873l5.275-16.379H102.4Zm-4.785-6.831-1.384-4.277q-.222-.653-.827-3.084h-.048q-.244,1.046-.779,3.084l-1.361,4.277Z" transform="translate(-93.873 -46.401)"/>
        <path id="패스_1452" data-name="패스 1452" d="M126.205,58.308a6.715,6.715,0,0,1-1.628,4.764,4.76,4.76,0,0,1-3.619,1.554,3.626,3.626,0,0,1-3.356-1.677h-.046v6.221H114.93V56.436q0-1.894-.1-3.887h2.307l.147,1.872h.05a4.666,4.666,0,0,1,7.471-.461,6.512,6.512,0,0,1,1.4,4.349m-2.672.1a4.871,4.871,0,0,0-.778-2.843,2.689,2.689,0,0,0-2.283-1.167,2.725,2.725,0,0,0-1.762.644,3,3,0,0,0-1.034,1.692,3.422,3.422,0,0,0-.12.8V59.5a3.152,3.152,0,0,0,.786,2.174,2.62,2.62,0,0,0,2.055.886,2.676,2.676,0,0,0,2.307-1.141,5.015,5.015,0,0,0,.827-3.014" transform="translate(-98.82 -47.736)"/>
        <path id="패스_1453" data-name="패스 1453" d="M143.984,58.308a6.712,6.712,0,0,1-1.629,4.764,4.757,4.757,0,0,1-3.62,1.554,3.621,3.621,0,0,1-3.352-1.677h-.049v6.221h-2.624V56.436q0-1.894-.1-3.887h2.307l.147,1.872h.05a4.666,4.666,0,0,1,7.47-.461,6.515,6.515,0,0,1,1.4,4.349m-2.671.1a4.86,4.86,0,0,0-.779-2.843,2.687,2.687,0,0,0-2.283-1.167,2.731,2.731,0,0,0-1.763.644,2.991,2.991,0,0,0-1.031,1.692,3.293,3.293,0,0,0-.123.8V59.5a3.143,3.143,0,0,0,.788,2.174,2.612,2.612,0,0,0,2.055.886,2.68,2.68,0,0,0,2.307-1.141,5.041,5.041,0,0,0,.827-3.014" transform="translate(-103.016 -47.736)"/>
        <path id="패스_1454" data-name="패스 1454" d="M164.237,58.354a4.36,4.36,0,0,1-1.456,3.4,6.44,6.44,0,0,1-4.459,1.433,7.829,7.829,0,0,1-4.246-1.019l.608-2.187a7.2,7.2,0,0,0,3.795,1.044,3.591,3.591,0,0,0,2.31-.667,2.192,2.192,0,0,0,.824-1.79,2.288,2.288,0,0,0-.679-1.679,6.333,6.333,0,0,0-2.263-1.266q-4.3-1.608-4.3-4.7a4.152,4.152,0,0,1,1.507-3.309,5.946,5.946,0,0,1,4.009-1.293,7.955,7.955,0,0,1,3.717.779l-.655,2.138a6.475,6.475,0,0,0-3.136-.753,3.169,3.169,0,0,0-2.161.68A1.953,1.953,0,0,0,157,50.652a2,2,0,0,0,.752,1.6,8.464,8.464,0,0,0,2.381,1.265,8.084,8.084,0,0,1,3.11,1.992,4.174,4.174,0,0,1,1,2.843" transform="translate(-108.081 -46.325)"/>
        <path id="패스_1455" data-name="패스 1455" d="M176.508,53.683h-2.892v5.735q0,2.188,1.533,2.187a4.765,4.765,0,0,0,1.164-.12l.072,1.992a5.892,5.892,0,0,1-2.039.291,3.145,3.145,0,0,1-2.43-.946,4.655,4.655,0,0,1-.875-3.184V53.683h-1.726v-1.97h1.726V49.553l2.575-.779v2.94h2.892Z" transform="translate(-111.677 -46.903)"/>
        <path id="패스_1456" data-name="패스 1456" d="M192.238,58.357a6.477,6.477,0,0,1-1.555,4.472,5.554,5.554,0,0,1-4.325,1.8,5.279,5.279,0,0,1-4.143-1.726,6.271,6.271,0,0,1-1.543-4.346,6.411,6.411,0,0,1,1.591-4.5,5.5,5.5,0,0,1,4.288-1.751,5.4,5.4,0,0,1,4.181,1.725,6.225,6.225,0,0,1,1.507,4.326m-2.723.085a5.318,5.318,0,0,0-.705-2.8,2.59,2.59,0,0,0-2.355-1.413,2.63,2.63,0,0,0-2.407,1.413,5.427,5.427,0,0,0-.7,2.853,5.315,5.315,0,0,0,.7,2.8,2.647,2.647,0,0,0,2.384,1.413,2.618,2.618,0,0,0,2.354-1.437,5.319,5.319,0,0,0,.729-2.827" transform="translate(-114.357 -47.736)"/>
        <path id="패스_1457" data-name="패스 1457" d="M205.022,54.856a4.725,4.725,0,0,0-.825-.072,2.491,2.491,0,0,0-2.141,1.046,3.943,3.943,0,0,0-.655,2.332v6.2h-2.622l.022-8.09q0-2.042-.1-3.719h2.285l.1,2.261h.07a4.046,4.046,0,0,1,1.313-1.872,3.176,3.176,0,0,1,1.9-.633,4.321,4.321,0,0,1,.655.047Z" transform="translate(-118.613 -47.736)"/>
        <path id="패스_1458" data-name="패스 1458" d="M219.091,57.887A6.33,6.33,0,0,1,219,59.078h-7.872a3.431,3.431,0,0,0,1.141,2.674,3.9,3.9,0,0,0,2.577.824,8.721,8.721,0,0,0,3.182-.558l.412,1.823a9.869,9.869,0,0,1-3.961.73,5.731,5.731,0,0,1-4.313-1.617,5.976,5.976,0,0,1-1.567-4.338,6.77,6.77,0,0,1,1.46-4.448,5.025,5.025,0,0,1,4.128-1.893,4.407,4.407,0,0,1,3.868,1.893,6.4,6.4,0,0,1,1.04,3.719m-2.5-.681a3.555,3.555,0,0,0-.508-2.016,2.3,2.3,0,0,0-2.093-1.094,2.5,2.5,0,0,0-2.088,1.07,3.887,3.887,0,0,0-.775,2.041Z" transform="translate(-120.947 -47.729)"/>
      </g>
    </g>
  </g>
</svg>
