<svg xmlns="http://www.w3.org/2000/svg" xmlns:xlink="http://www.w3.org/1999/xlink" width="156.848" height="37" viewBox="0 0 156.848 37">
  <defs>
    <linearGradient id="linear-gradient" x1="0.808" y1="0.5" x2="-1.573" y2="0.5" gradientUnits="objectBoundingBox">
      <stop offset="0" stop-color="gold"/>
      <stop offset="0.075" stop-color="#fece00"/>
      <stop offset="0.48" stop-color="#fca704"/>
      <stop offset="0.803" stop-color="#fa8e07"/>
      <stop offset="1" stop-color="#fa8608"/>
    </linearGradient>
    <linearGradient id="linear-gradient-2" x1="0.862" y1="0.178" x2="-0.501" y2="1.948" gradientUnits="objectBoundingBox">
      <stop offset="0" stop-color="#e82b36"/>
      <stop offset="1" stop-color="#b4005a"/>
    </linearGradient>
    <linearGradient id="linear-gradient-3" x1="-0.507" y1="-0.956" x2="0.606" y2="0.489" gradientUnits="objectBoundingBox">
      <stop offset="0" stop-color="#2f8e5b"/>
      <stop offset="0.39" stop-color="#4ea157"/>
      <stop offset="0.768" stop-color="#67b054"/>
      <stop offset="1" stop-color="#70b653"/>
    </linearGradient>
  </defs>
  <g id="그룹_12558" data-name="그룹 12558" transform="translate(-19.173 -13.042)">
    <path id="패스_1423" data-name="패스 1423" d="M128.341,128.421a5.759,5.759,0,1,0,5.781,5.759A5.676,5.676,0,0,0,128.341,128.421Zm0,9.249a3.5,3.5,0,1,1,3.25-3.49A3.332,3.332,0,0,1,128.341,137.67Zm-12.609-9.249a5.759,5.759,0,1,0,5.78,5.759A5.676,5.676,0,0,0,115.732,128.421Zm0,9.249a3.5,3.5,0,1,1,3.249-3.49A3.332,3.332,0,0,1,115.732,137.67Zm-15-7.482v2.443h5.846a5.1,5.1,0,0,1-1.33,3.076,5.988,5.988,0,0,1-4.515,1.788,6.5,6.5,0,0,1,0-13,6.231,6.231,0,0,1,4.406,1.745l1.723-1.723a8.522,8.522,0,0,0-6.129-2.465,8.944,8.944,0,1,0,0,17.887,8.179,8.179,0,0,0,6.239-2.509,8.075,8.075,0,0,0,2.115-5.715,7.941,7.941,0,0,0-.131-1.527Zm61.345,1.9a5.353,5.353,0,0,0-4.93-3.664,5.472,5.472,0,0,0-5.431,5.759,5.635,5.635,0,0,0,5.714,5.759,5.728,5.728,0,0,0,4.8-2.552l-1.963-1.309a3.291,3.291,0,0,1-2.836,1.593,2.928,2.928,0,0,1-2.791-1.745l7.7-3.185Zm-7.853,1.92a3.159,3.159,0,0,1,3.01-3.36,2.229,2.229,0,0,1,2.137,1.221Zm-6.26,5.584h2.53V122.663h-2.53Zm-4.145-9.881h-.087a3.993,3.993,0,0,0-3.032-1.287,5.764,5.764,0,0,0,0,11.518,3.928,3.928,0,0,0,3.032-1.309h.087v.828c0,2.2-1.178,3.382-3.075,3.382a3.186,3.186,0,0,1-2.9-2.051l-2.2.916a5.489,5.489,0,0,0,5.1,3.4c2.967,0,5.475-1.745,5.475-6V128.77h-2.4Zm-2.9,7.962a3.5,3.5,0,0,1,0-6.98,3.518,3.518,0,0,1,0,6.98Zm33.011-15.007h-6.053v16.926H170.4v-6.413h3.528a5.265,5.265,0,1,0,0-10.513Zm.066,8.158H170.4v-5.8h3.594a2.9,2.9,0,1,1,0,5.8Zm15.613-2.431a4.743,4.743,0,0,0-4.508,2.591l2.243.937a2.393,2.393,0,0,1,2.308-1.242,2.433,2.433,0,0,1,2.657,2.178v.174a5.6,5.6,0,0,0-2.636-.653c-2.417,0-4.877,1.328-4.877,3.811,0,2.264,1.982,3.723,4.2,3.723a3.563,3.563,0,0,0,3.222-1.655h.088v1.306h2.439v-6.489C194.746,130.067,192.5,128.39,189.607,128.39Zm-.3,9.277c-.827,0-1.982-.414-1.982-1.437,0-1.306,1.437-1.808,2.679-1.808a4.5,4.5,0,0,1,2.308.567A3.063,3.063,0,0,1,189.3,137.667Zm14.328-8.906-2.9,7.338h-.087l-3.005-7.338h-2.722l4.507,10.257-2.569,5.7h2.635l6.947-15.961Zm-22.756,10.829H183.4V122.663h-2.525Z" transform="translate(-30.419 -95.066)"/>
    <g id="그룹_9350" data-name="그룹 9350" transform="translate(19.173 13.421)">
      <path id="패스_1424" data-name="패스 1424" d="M42.312,106.754a2.71,2.71,0,0,0-.625,1.9v29.92a2.708,2.708,0,0,0,.625,1.9l.1.1,16.76-16.76v-.4l-16.76-16.76Z" transform="translate(-41.687 -106.216)" fill="#40bff2"/>
      <path id="패스_1425" data-name="패스 1425" d="M68.045,131.5l-5.586-5.589v-.4l5.588-5.588.125.072,6.619,3.761c1.891,1.074,1.891,2.832,0,3.906l-6.619,3.761Z" transform="translate(-44.973 -108.316)" fill="url(#linear-gradient)"/>
      <path id="패스_1426" data-name="패스 1426" d="M65,132.515,59.291,126.8,42.43,143.661a2.2,2.2,0,0,0,2.812.083L65,132.515" transform="translate(-41.805 -109.403)" fill="url(#linear-gradient-2)"/>
      <path id="패스_1427" data-name="패스 1427" d="M65,117.817,45.242,106.588a2.2,2.2,0,0,0-2.812.082l16.861,16.861Z" transform="translate(-41.805 -106.133)" fill="url(#linear-gradient-3)"/>
    </g>
    <g id="그룹_9351" data-name="그룹 9351" transform="translate(61.801 13.043)">
      <path id="패스_1428" data-name="패스 1428" d="M98.267,107.577a2.892,2.892,0,0,0-1.918-.74,3.06,3.06,0,0,0,0,6.116,2.31,2.31,0,0,0,2.543-2.151H96.627v-.936h3.491c0,2.8-1.492,4.116-3.769,4.116a4.087,4.087,0,0,1,0-8.173,3.936,3.936,0,0,1,2.694,1.052Z" transform="translate(-92.326 -105.808)"/>
      <path id="패스_1429" data-name="패스 1429" d="M108.045,105.918v1.005H104.4v2.544h3.18v1.006H104.4v2.4h3.757v1.006h-4.832v-7.965Z" transform="translate(-94.066 -105.825)"/>
      <path id="패스_1430" data-name="패스 1430" d="M116.1,105.918v1.017h-2.417v6.948H112.6v-6.948h-2.417v-1.017Z" transform="translate(-95.151 -105.825)"/>
      <path id="패스_1431" data-name="패스 1431" d="M123.138,105.918v7.965h-1.075v-7.965Z" transform="translate(-97.03 -105.825)"/>
      <path id="패스_1432" data-name="패스 1432" d="M130.935,105.918v1.017h-2.417v6.948h-1.086v-6.948h-2.417v-1.017Z" transform="translate(-97.497 -105.825)"/>
      <path id="패스_1433" data-name="패스 1433" d="M140.3,105.808a4.087,4.087,0,1,1-4.023,4.093A4.04,4.04,0,0,1,140.3,105.808Zm0,7.133a3.048,3.048,0,1,0-2.948-3.04A2.969,2.969,0,0,0,140.3,112.941Z" transform="translate(-99.279 -105.808)"/>
      <path id="패스_1434" data-name="패스 1434" d="M152.535,113.883l-3.63-6v6H147.83v-7.965h1.063l3.6,5.953v-5.953h1.075v7.965Z" transform="translate(-101.106 -105.825)"/>
    </g>
  </g>
</svg>
